<svg width="35" height="51" viewBox="0 0 35 51" fill="none" xmlns="http://www.w3.org/2000/svg">
	<path fill-rule="evenodd" clip-rule="evenodd"
		d="M32.25 15.9618C32.25 24.2375 25.5343 30.9463 17.25 30.9463C8.96573 30.9463 2.25 24.2375 2.25 15.9618C2.25 7.68608 8.96573 0.977295 17.25 0.977295C25.5343 0.977295 32.25 7.68608 32.25 15.9618ZM17.7255 9.93135L18.9338 13.6463C19.0008 13.8522 19.1927 13.9916 19.4093 13.9916H23.3183C23.8028 13.9916 24.0041 14.6117 23.612 14.8963L20.4504 17.191C20.275 17.3183 20.2016 17.5441 20.2686 17.7503L21.4765 21.4637C21.6263 21.9243 21.0992 22.3075 20.7073 22.0231L17.5437 19.7269C17.3685 19.5998 17.1315 19.5998 16.9563 19.7269L13.7927 22.0231C13.4008 22.3075 12.8737 21.9243 13.0235 21.4637L14.2314 17.7503C14.2984 17.5441 14.225 17.3183 14.0496 17.191L10.888 14.8963C10.4959 14.6117 10.6972 13.9916 11.1817 13.9916H15.0907C15.3073 13.9916 15.4992 13.8522 15.5662 13.6463L16.7745 9.93135C16.9243 9.47089 17.5757 9.47089 17.7255 9.93135ZM0.25 47.4292L7.25 29.9473C10.05 31.9452 12.75 32.9442 16.25 33.4436L9.75 50.9256L6.75 44.4323L0.25 47.4292ZM34.25 47.4292L27.25 29.9473C24.45 31.9452 21.75 32.9442 18.25 33.4436L24.75 50.9256L27.75 44.4323L34.25 47.4292Z"
		fill="#70C174" />
</svg>